<?xml version="1.0" standalone="no"?>
<!DOCTYPE svg PUBLIC "-//W3C//DTD SVG 1.1//EN" "http://www.w3.org/Graphics/SVG/1.1/DTD/svg11.dtd" >
<svg xmlns="http://www.w3.org/2000/svg">
<metadata>
This is a custom SVG webfont generated by Font Squirrel.
Copyright   : Copyright c 2011 Sol Matas wwwhuertatipograficacomar with Reserved Font Name Bitter
Designer    : Sol Matas
Foundry     : Sol Matas
Foundry URL : wwwhuertatipograficacomar
</metadata>
<defs>
<font id="BitterItalic" horiz-adv-x="1167" >
<font-face units-per-em="2048" ascent="1638" descent="-410" />
<missing-glyph horiz-adv-x="614" />
<glyph unicode=" "  horiz-adv-x="614" />
<glyph unicode="&#x09;" horiz-adv-x="614" />
<glyph unicode="&#xa0;" horiz-adv-x="614" />
<glyph unicode="!" horiz-adv-x="675" d="M113 92q0 72 42 123t115 51q113 0 113 -112q0 -70 -42 -122t-118 -52q-110 -1 -110 112zM227 502l135 1034h232l-197 -1024z" />
<glyph unicode="&#x22;" horiz-adv-x="821" d="M184 1065l80 512h191l-121 -512h-150zM528 1065l80 512h193l-121 -512h-152z" />
<glyph unicode="#" horiz-adv-x="1411" d="M102 348l21 133h231l86 297h-219l21 133h237l92 318h162l-92 -318h289l94 318h160l-90 -318h225l-21 -133h-243l-88 -297h229l-20 -133h-248l-99 -348h-161l100 348h-291l-100 -348h-160l98 348h-213zM516 481h291l84 297h-289z" />
<glyph unicode="$" horiz-adv-x="1150" d="M82 57l55 342h127l6 -209q88 -41 203 -40q113 0 208 60t95 159q0 66 -56 111.5t-135 75.5t-159 65.5t-136.5 104.5t-56.5 171q0 172 113 274.5t283 126.5l35 228l151 10l-37 -231q153 -12 312 -76l-62 -324h-110l-27 207q-96 35 -189 35q-119 0 -190.5 -56.5 t-71.5 -138.5q0 -66 56.5 -111.5t136.5 -75.5t158.5 -65.5t135 -101.5t56.5 -160q0 -182 -116.5 -297.5t-295.5 -148.5l-45 -279h-149l43 267q-80 2 -165 21t-129 38z" />
<glyph unicode="%" horiz-adv-x="1669" d="M156 997q0 197 113.5 327t289.5 130q123 0 190.5 -68.5t67.5 -191.5q0 -193 -106.5 -325t-284.5 -132q-270 0 -270 260zM213 0l1040 1434h181l-1041 -1434h-180zM309 1022q0 -76 39 -115t107 -39q92 0 150.5 80t58.5 209q-1 166 -144 166q-94 0 -152.5 -82t-58.5 -219z M827 240q0 197 114 326.5t290 129.5q123 0 190.5 -68.5t67.5 -191.5q0 -193 -106.5 -324.5t-284.5 -131.5q-270 0 -271 260zM981 264q0 -76 39 -114.5t106 -38.5q92 0 150.5 79.5t58.5 208.5q0 166 -143 166q-94 0 -152.5 -82t-58.5 -219z" />
<glyph unicode="&#x26;" horiz-adv-x="1372" d="M96 317q0 156 94.5 272t243.5 189q-8 2 -20.5 7.5t-46 25.5t-59 45t-46 70t-20.5 96q0 207 143 319.5t383 112.5q180 0 369 -80l-52 -289h-129l-14 164q-78 31 -217 31q-127 0 -201.5 -66.5t-74.5 -173.5q0 -92 65.5 -146t171.5 -54h610l-20 -123l-166 -41l-41 -246 q-35 -213 -184.5 -331.5t-376.5 -118.5q-211 0 -311.5 90t-100.5 247zM311 348q0 -94 62.5 -144t173.5 -50q129 0 214 68.5t105 197.5l41 256h-268q-135 0 -231.5 -92t-96.5 -236z" />
<glyph unicode="'" horiz-adv-x="434" d="M164 1065l80 512h190l-121 -512h-149z" />
<glyph unicode="(" horiz-adv-x="675" d="M133 264q0 365 124 682.5t394 630.5h180q-236 -307 -363.5 -618.5t-127.5 -684.5q0 -442 164 -745h-178q-193 358 -193 735z" />
<glyph unicode=")" horiz-adv-x="675" d="M-158 -471q236 307 364 618.5t128 683.5q0 442 -164 746h178q193 -358 193 -735q0 -365 -124 -682.5t-394 -630.5h-181z" />
<glyph unicode="*" horiz-adv-x="884" d="M164 1198l72 143l227 -94l16 -65l-65 -35l69 4l4 -70l-168 -231l-106 86l201 211zM463 1247l16 254l146 4l-56 -260l246 101l29 -144l-260 -59l135 -203l-129 -90l-103 231l29 70l68 -8l-52 39l37 63l-61 -45z" />
<glyph unicode="+" horiz-adv-x="1263" d="M92 465l29 156h430l74 464h174l-76 -464h438l-26 -156h-439l-71 -465h-174l73 465h-432z" />
<glyph unicode="," horiz-adv-x="471" d="M-31 -238q143 164 144 224q0 18 -14.5 54.5t-14.5 63.5q0 63 43 112.5t111 49.5q111 0 110 -112q0 -86 -75.5 -204t-150.5 -192l-75 -73z" />
<glyph unicode="-" horiz-adv-x="786" d="M104 471l29 174h520l-28 -174h-521z" />
<glyph unicode="." horiz-adv-x="444" d="M61 92q0 72 42 123t116 51q113 0 113 -112q0 -70 -42 -122t-118 -52q-111 -1 -111 112z" />
<glyph unicode="/" horiz-adv-x="917" d="M-51 0l891 1434h211l-893 -1434h-209z" />
<glyph unicode="0" horiz-adv-x="1292" d="M113 430q0 137 20.5 272.5t70.5 273.5t123.5 242.5t192.5 170t266 65.5q215 0 319.5 -121t104.5 -329q0 -133 -18 -264.5t-65.5 -271.5t-119 -246.5t-190.5 -174t-268 -67.5q-436 0 -436 450zM328 451q0 -158 56 -227.5t198 -69.5q102 0 185 81.5t130 210.5t72.5 268.5 t25.5 268.5q0 154 -53 225.5t-186 71.5q-109 0 -196 -82t-135 -211t-72.5 -267t-24.5 -269z" />
<glyph unicode="1" horiz-adv-x="1011" d="M51 0l29 174h305l164 1024l-387 -231l-60 147l516 320h175l-203 -1260h309l-27 -174h-821z" />
<glyph unicode="2" horiz-adv-x="1189" d="M0 0l29 174l260 211q319 258 444 412.5t125 298.5q0 82 -59.5 133t-171.5 51q-45 0 -101.5 -8t-89.5 -17l-33 -8l-49 -203h-161l40 336q250 74 424 74q207 0 318.5 -69.5t111.5 -237.5q0 -190 -143 -386t-436 -427l-201 -160h672l-29 -174h-950z" />
<glyph unicode="3" horiz-adv-x="1118" d="M-20 82l79 158q176 -86 326 -86q143 0 240.5 82.5t97.5 212.5q0 217 -264 217h-156l27 163h143q170 0 252 83t82 198q0 78 -57.5 124t-165.5 46q-51 0 -104.5 -8t-82.5 -17l-28 -8l-45 -186h-164l39 319q229 74 424 74q184 0 293.5 -78t109.5 -221q0 -145 -81 -250.5 t-243 -150.5q113 -27 178.5 -106t65.5 -175q0 -213 -170 -353t-418 -140q-98 0 -192 25.5t-140 50.5z" />
<glyph unicode="4" horiz-adv-x="1212" d="M0 348l10 144l797 972l207 -30l-148 -922h244l-29 -164h-239l-56 -348h-194l55 348h-647zM219 512h453l108 684z" />
<glyph unicode="5" horiz-adv-x="1118" d="M10 82l80 156q188 -84 340 -84q139 0 239.5 89t100.5 218q0 246 -371 246h-202l129 727h751l-28 -174h-564l-67 -390h65q246 0 378 -101t132 -267q0 -221 -171 -371.5t-410 -150.5q-109 0 -209.5 25.5t-146.5 50.5z" />
<glyph unicode="6" horiz-adv-x="1234" d="M135 432q0 117 25.5 246t90 269t160 251t250 183.5t343.5 72.5q33 0 72.5 -5t63.5 -10l23 -5l-28 -164q-72 10 -156 10q-96 0 -180 -27.5t-142.5 -71.5t-105.5 -98.5t-74.5 -107.5t-46 -97t-26.5 -72l-7 -28q18 12 49 28.5t124.5 45.5t183.5 29q158 0 264 -91.5 t106 -254.5q0 -227 -164.5 -391t-398.5 -164q-117 0 -203 38.5t-133 105t-68.5 142.5t-21.5 166zM342 430q0 -125 66.5 -200.5t181.5 -75.5q145 0 232 98t87 246q0 209 -241 209q-72 0 -148 -24t-117 -46l-41 -23q-20 -123 -20 -184z" />
<glyph unicode="7" horiz-adv-x="1052" d="M82 1055l61 379h961l-27 -154l-735 -1280h-231l731 1249h-539l-72 -194h-149z" />
<glyph unicode="8" horiz-adv-x="1290" d="M102 299q0 303 340 453q-190 102 -190 266q0 193 146.5 314.5t402.5 121.5q188 0 287.5 -81t99.5 -218q0 -145 -86 -244.5t-230 -150.5q106 -49 167 -114.5t61 -176.5q0 -211 -170 -350t-412 -139q-209 0 -312.5 91t-103.5 228zM328 348q0 -92 61 -142t174 -50 q143 0 227 79.5t84 198.5q0 47 -19 83t-66.5 66.5t-81 47t-103.5 47.5q-127 -59 -201.5 -135t-74.5 -195zM465 1047q0 -47 18.5 -83t61.5 -64t74.5 -42t95.5 -39q104 37 181 115t77 178q0 78 -57.5 123t-163.5 45q-119 0 -203 -62.5t-84 -170.5z" />
<glyph unicode="9" horiz-adv-x="1273" d="M102 0l27 164q74 -10 158 -10q343 0 510 313q56 106 73 199q-18 -12 -48.5 -28.5t-124 -45.5t-183.5 -29q-164 0 -268.5 90t-104.5 254q0 225 164 386t400 161q180 0 302.5 -108.5t122.5 -348.5q0 -129 -28.5 -263t-95 -271t-164 -243.5t-249 -173t-335.5 -66.5zM356 934 q0 -197 244 -197q72 0 147.5 22.5t116.5 46.5l41 23q18 94 19 168q0 143 -69 213t-179 70q-143 0 -231.5 -98.5t-88.5 -247.5z" />
<glyph unicode=":" horiz-adv-x="589" d="M82 92q0 72 42 123t116 51q113 0 112 -112q0 -70 -42 -122t-117 -52q-111 -1 -111 112zM186 758q0 72 42 123t116 51q113 0 113 -113q0 -70 -42 -122t-118 -52q-111 0 -111 113z" />
<glyph unicode=";" horiz-adv-x="608" d="M-20 -238l77 -77q12 10 33 30.5t72 77.5t91 111.5t72.5 124t32.5 125.5q0 113 -110 112q-68 0 -111 -49.5t-43 -112.5q0 -27 14.5 -63.5t14.5 -54.5q0 -27 -36 -82.5t-72 -98.5zM195 758q0 72 42 123t115 51q113 0 113 -113q0 -70 -42 -122t-118 -52q-110 0 -110 113z " />
<glyph unicode="&#x3c;" horiz-adv-x="1253" d="M102 471l25 143l1100 471l-29 -178l-860 -368l735 -379l-29 -170z" />
<glyph unicode="=" horiz-adv-x="1228" d="M76 276l26 164h983l-26 -164h-983zM141 676l27 164h983l-27 -164h-983z" />
<glyph unicode="&#x3e;" horiz-adv-x="1247" d="M20 -10l29 178l860 369l-735 378l29 170l942 -481l-25 -143z" />
<glyph unicode="?" horiz-adv-x="937" d="M174 92q0 70 42 122t118 52q110 1 110 -112q0 -72 -42 -123t-115 -51q-113 0 -113 112zM262 471v131q0 76 46 144.5t112.5 121t133.5 103.5t113 115.5t46 136.5q0 133 -189 133l-215 -25l-10 148q147 47 281 47q348 0 348 -266q0 -96 -50.5 -183.5t-122 -150t-143 -118.5 t-122 -115.5t-50.5 -117.5v-92z" />
<glyph unicode="@" horiz-adv-x="1679" d="M123 526q0 256 93 464t285.5 336t454.5 128q289 0 444.5 -148.5t155.5 -414.5q0 -225 -103 -395t-290 -170q-53 0 -90 21.5t-52 56t-21.5 63.5t-6.5 61l2 39q-4 -10 -11 -26.5t-33.5 -57.5t-57.5 -72.5t-82 -58t-109 -26.5q-96 0 -151 71.5t-55 175.5q0 254 124.5 397.5 t294.5 143.5q98 0 166 -47l37 31h88l-73 -465q-8 -66 -9 -80q0 -94 70 -94q96 0 147.5 128t51.5 269q0 211 -121 327.5t-350 116.5q-190 0 -335 -101t-218.5 -268t-73.5 -370q0 -209 108.5 -318.5t311.5 -109.5q57 0 119.5 13.5t96.5 25.5l34 12l61 -123q-143 -82 -346 -81 q-270 0 -413.5 141t-143.5 405zM655 614q0 -152 82 -151q45 0 90 37t76 90t55.5 107.5t36.5 90.5l13 37l30 142q-51 23 -125 22q-98 0 -178 -101.5t-80 -273.5z" />
<glyph unicode="A" horiz-adv-x="1445" d="M-82 0l19 123l174 41l655 1259l203 11l245 -1276l140 -35l-21 -123h-542l18 123l176 41l-41 225h-522l-113 -227l172 -39l-20 -123h-543zM502 553h413l-104 616z" />
<glyph unicode="B" horiz-adv-x="1302" d="M10 0l21 123l182 41l174 1106l-166 41l19 112l378 11h213q172 0 286 -80t114 -234q0 -158 -96.5 -253t-223.5 -124q270 -61 271 -276q0 -221 -155 -344t-398 -123h-619zM418 164h190q168 0 261.5 82t93.5 200q0 121 -77 170.5t-237 49.5h-153zM520 819h150 q55 0 109.5 13.5t110.5 42t90 87t34 138.5t-56.5 125t-146.5 45h-219z" />
<glyph unicode="C" horiz-adv-x="1306" d="M123 500q0 418 227.5 686t575.5 268q214 0 427 -100l5 -2l-55 -348h-119l-25 225q-125 51 -274 51q-158 0 -283 -106.5t-189.5 -274.5t-64.5 -360q0 -170 89 -274.5t235 -104.5q238 0 454 159l74 -120q-272 -219 -569 -219q-238 0 -373 140t-135 380z" />
<glyph unicode="D" horiz-adv-x="1480" d="M10 0l21 123l176 39l178 1108l-166 41l19 112l378 11h265q229 0 368.5 -129t139.5 -353q0 -455 -224.5 -703.5t-611.5 -248.5h-543zM416 164h168q279 0 434.5 209t155.5 553q0 164 -82 254t-242 90h-258z" />
<glyph unicode="E" horiz-adv-x="1183" d="M10 0l21 123l180 41l176 1106l-168 41l19 112l380 11h617l-55 -349h-115l-21 185h-452l-72 -441h467l-24 -163h-467l-80 -502h465l75 209h136l-64 -373h-1018z" />
<glyph unicode="F" horiz-adv-x="1122" d="M10 0l21 123l180 41l178 1106l-170 41l19 112l380 11h617l-55 -349h-115l-21 185h-452l-76 -461h469l-24 -164h-467l-78 -481l200 -41l-20 -123h-586z" />
<glyph unicode="G" horiz-adv-x="1482" d="M123 500q0 420 227.5 687t575.5 267q214 0 427 -100l5 -2l-55 -330h-119l-25 213q-113 45 -268 45q-158 0 -285 -106.5t-192.5 -275.5t-65.5 -359q0 -180 91 -281.5t274 -101.5q170 0 317 55l55 342l-174 31l19 112l532 11l-20 -123l-158 -31l-72 -451 q-263 -122 -550 -122q-250 0 -394.5 142t-144.5 378z" />
<glyph unicode="H" horiz-adv-x="1628" d="M20 0l21 123l176 39l178 1108l-168 41l19 112l563 11l-21 -123l-188 -41l-74 -451h668l72 451l-187 41l19 112l571 11l-20 -123l-179 -41l-178 -1106l172 -41l-20 -123h-570l21 123l192 39l80 493h-667l-78 -491l178 -41l-20 -123h-560z" />
<glyph unicode="I" horiz-adv-x="765" d="M20 0l21 123l184 41l176 1106l-172 41l19 112l559 11l-21 -123l-180 -41l-178 -1106l172 -41l-20 -123h-560z" />
<glyph unicode="J" horiz-adv-x="708" d="M-174 -297l43 154h100h2q178 0 211 194l195 1219l-174 41l18 112l559 11l-20 -123l-178 -41l-189 -1178q-29 -186 -145.5 -292.5t-294.5 -106.5z" />
<glyph unicode="K" horiz-adv-x="1320" d="M10 0l21 123l180 41l178 1106l-172 41l19 112l561 11l-21 -123l-182 -41l-74 -451h189l442 604l303 11l-20 -123l-174 -41l-388 -518l322 -588l145 -41l-20 -123h-533l21 123l156 39l-267 493h-202l-78 -491l174 -41l-21 -123h-559z" />
<glyph unicode="L" horiz-adv-x="1099" d="M20 0l21 123l182 41l176 1106l-170 41l17 112l571 11l-20 -123l-193 -41l-176 -1106h422l80 235h139l-68 -399h-981z" />
<glyph unicode="M" horiz-adv-x="1802" d="M10 0l21 123l180 41l178 1106l-170 41l19 112l444 11l244 -822l499 811l428 11l-20 -123l-174 -41l-174 -1106l164 -41l-21 -123h-538l20 123l172 41l156 975l-480 -770l-167 -11l-232 789l-158 -983l181 -41l-21 -123h-551z" />
<glyph unicode="N" horiz-adv-x="1609" d="M10 0l23 123l182 41l176 1106l-170 41l19 112l430 11l479 -1145l156 981l-164 41l18 112l522 11l-20 -123l-174 -41l-201 -1270h-231l-500 1153l-158 -989l168 -41l-22 -123h-533z" />
<glyph unicode="O" horiz-adv-x="1515" d="M123 479q0 430 228.5 702.5t574.5 272.5q244 0 381 -138t137 -364q0 -440 -235 -706t-593 -266q-229 0 -361 134t-132 365zM348 500q0 -170 83 -258t231 -88q244 0 400.5 220t156.5 552q0 180 -87.5 267t-240.5 87q-240 0 -391.5 -228.5t-151.5 -551.5z" />
<glyph unicode="P" horiz-adv-x="1181" d="M10 0l21 123l178 41l176 1106l-166 41l19 112l378 11h215q164 0 283 -77t119 -251q0 -162 -56.5 -278.5t-152.5 -178t-198.5 -89.5t-217.5 -28h-135l-59 -370l176 -39l-21 -123h-559zM498 696h137q205 0 294 103.5t89 263.5q0 61 -22.5 104t-59.5 63.5t-72 30t-69 9.5 h-205z" />
<glyph unicode="Q" horiz-adv-x="1517" d="M113 479q0 430 228 702.5t574 272.5q244 0 381.5 -133t137.5 -348q0 -371 -160 -623t-426 -336l184 -141q100 -78 193 -78q31 0 82 18.5t86 35.5l34 18l60 -123q-219 -117 -330 -117q-88 0 -246 109l-360 246q-205 16 -321.5 148t-116.5 349zM338 500q0 -170 83 -258 t230 -88q246 0 401.5 223t155.5 569q0 334 -327 334q-240 0 -391.5 -228.5t-151.5 -551.5z" />
<glyph unicode="R" horiz-adv-x="1300" d="M10 0l21 123l180 41l176 1106l-166 41l17 112l380 11h222q168 0 283.5 -80t115.5 -232q0 -176 -98.5 -293.5t-259.5 -169.5q61 -51 120 -229l91 -266l147 -41l-20 -123h-295l-115 379q-45 150 -99.5 198t-160.5 48h-60l-71 -461l176 -41l-21 -123h-563zM514 778h152 q160 0 259 81t99 226q0 185 -221 185h-211z" />
<glyph unicode="S" horiz-adv-x="1212" d="M82 61l57 359h135l7 -223q94 -43 215 -43q123 0 223 67.5t100 179.5q0 55 -31.5 96.5t-83 69t-113 52t-122.5 55.5t-112.5 69.5t-83 102t-31.5 147.5q0 225 157.5 343t374.5 118q78 0 172 -20.5t150 -40.5l55 -21l-66 -348h-114l-29 219q-104 37 -201 37 q-127 0 -203.5 -62.5t-76.5 -152.5q0 -74 59.5 -125t144.5 -85t170 -73t144 -112.5t59 -180.5q0 -162 -85 -281.5t-212 -173.5t-276 -54q-90 0 -186.5 20t-146.5 41z" />
<glyph unicode="T" horiz-adv-x="1101" d="M72 1065l61 369h1102l-59 -369h-132l-20 205h-264l-176 -1106l196 -41l-20 -123h-613l21 123l211 41l176 1106h-266l-84 -205h-133z" />
<glyph unicode="U" horiz-adv-x="1505" d="M154 1311l18 112l561 11l-20 -123l-178 -41l-115 -717q-12 -74 -12 -141q0 -125 62 -191.5t218 -66.5q182 0 272.5 98t126.5 332l111 686l-184 41l18 112l565 11l-20 -123l-172 -41l-107 -666q-47 -305 -197.5 -464.5t-451.5 -159.5q-242 0 -346 107.5t-104 301.5 q0 63 14 164l115 717z" />
<glyph unicode="V" horiz-adv-x="1376" d="M92 1311l19 112l362 11l197 -1137l444 973l-164 41l21 112l549 11l-21 -123l-168 -41l-622 -1270h-195l-248 1270z" />
<glyph unicode="W" horiz-adv-x="2011" d="M92 1311l19 112l362 11v-2l2 2l154 -1055l454 1044l129 11l164 -1069l385 905l-176 41l21 112l548 11l-20 -123l-158 -39l-587 -1272h-129l-179 993l-86 -209l-372 -784h-134l-225 1270z" />
<glyph unicode="X" horiz-adv-x="1282" d="M-113 0l21 123l190 39l437 557l-273 553l-172 39l21 112l546 11l-20 -123l-129 -33l178 -383l305 387l-108 29l20 112l543 11l-21 -123l-219 -45l-422 -525l283 -577l178 -41l-20 -123h-547l20 123l131 27l-192 413l-315 -403l129 -37l-21 -123h-543z" />
<glyph unicode="Y" horiz-adv-x="1247" d="M82 1311l18 112l338 11l205 -750l344 588l-153 39l20 112l526 11l-20 -123l-170 -41l-506 -797l-49 -309l170 -41l-21 -123h-559l21 123l184 41l57 373l-213 733z" />
<glyph unicode="Z" horiz-adv-x="1267" d="M92 0l10 143l852 1125h-540l-82 -183h-115l49 349h961l-10 -136l-859 -1134h549l74 209h135l-59 -373h-965z" />
<glyph unicode="[" horiz-adv-x="706" d="M45 -471l326 2048l430 -10l-21 -133l-245 -23l-273 -1716l242 -23l-21 -133z" />
<glyph unicode="\" horiz-adv-x="1036" d="M182 1434h183l438 -1434h-182z" />
<glyph unicode="]" horiz-adv-x="706" d="M-74 -461l19 133l248 23l272 1716l-242 23l23 133l436 10l-326 -2048z" />
<glyph unicode="^" d="M68 655l507 779h140l256 -779h-170l-191 574l-366 -574h-176z" />
<glyph unicode="_" horiz-adv-x="1024" d="M0 -164h1024v-143h-1024v143z" />
<glyph unicode="`" horiz-adv-x="509" d="M0 1491l88 154l422 -302l-64 -108z" />
<glyph unicode="a" horiz-adv-x="1208" d="M92 338q0 356 181.5 562t428.5 206q59 0 117 -15.5t85 -30.5l28 -16l61 41h113l-148 -921l179 -31l-19 -113l-381 -20l82 377q-14 -29 -27.5 -53.5t-61.5 -95t-96 -119t-123 -89t-151 -40.5q-115 0 -191.5 102t-76.5 256zM297 369q0 -104 35 -159.5t90 -55.5 q70 0 138.5 57t117.5 138t89 162t59 138l20 58l41 215q-76 30 -178 30h-7q-164 0 -284.5 -148.5t-120.5 -434.5z" />
<glyph unicode="b" horiz-adv-x="1210" d="M113 41l219 1372l-170 41l18 113l375 10l-80 -492l-82 -376q6 16 22.5 50t57.5 98.5t90 116.5t124 92t155 40q131 0 202.5 -106.5t71.5 -262.5q0 -338 -188.5 -547.5t-444.5 -209.5q-88 0 -180 15t-141 31zM332 164q80 -31 172 -31q152 0 279.5 151.5t127.5 422.5 q0 96 -34.5 160.5t-106.5 64.5q-70 0 -136.5 -57.5t-111.5 -138.5t-79.5 -161.5t-51.5 -138.5l-16 -57z" />
<glyph unicode="c" horiz-adv-x="952" d="M72 358q0 334 170 541t434 207q74 0 145.5 -20.5t106.5 -41.5l35 -20l-45 -276h-134l-6 174q-49 20 -133 20q-168 0 -268.5 -169t-100.5 -404q0 -225 195 -226q141 1 307 93l62 -103q-23 -16 -63 -41.5t-148.5 -68.5t-198.5 -43q-160 0 -259 100t-99 278z" />
<glyph unicode="d" horiz-adv-x="1216" d="M113 338q0 354 179 561t427 207q111 0 196 -45l58 352l-174 41l18 113l379 10l-229 -1413l176 -31l-19 -113l-374 -20l90 377q-8 -18 -25.5 -52t-61.5 -97.5t-94.5 -116t-125 -92t-150.5 -39.5q-119 0 -194.5 101t-75.5 257zM317 379q0 -109 34 -167t93 -58 q70 0 137.5 57t115.5 138t86 162t58 138l19 58l33 215q-70 30 -168 30h-6q-176 0 -289 -162.5t-113 -410.5z" />
<glyph unicode="e" horiz-adv-x="1032" d="M61 338q0 324 173.5 546t418.5 222q156 0 247 -72.5t91 -193.5q0 -176 -199.5 -286t-519.5 -110q-6 -47 -6 -88q0 -213 226 -213q66 0 149.5 22.5t134.5 46.5l51 24l62 -105q-25 -16 -68 -42t-163.5 -67.5t-227.5 -41.5q-168 0 -268.5 98t-100.5 260zM291 588 q219 0 362.5 65.5t143.5 165.5q0 133 -154 133q-113 0 -213 -102t-139 -262z" />
<glyph unicode="f" horiz-adv-x="724" d="M-233 -465l34 131h146q168 0 209 252l157 1004h-192l20 133l197 20l20 123q63 399 408 399q63 0 135 -10t112 -20l40 -11l-54 -286h-133v164h-100q-100 0 -144 -50.5t-61 -144.5l-26 -164h288l-26 -153h-287l-154 -963q-72 -451 -419 -451z" />
<glyph unicode="g" horiz-adv-x="1144" d="M41 -418l49 148q178 -63 307 -64q252 0 310 273l92 438q-14 -29 -27.5 -53.5t-61.5 -95t-97.5 -119t-125 -89t-151.5 -40.5q-115 0 -189.5 101t-74.5 257q0 356 180 562t426 206q138 0 231 -62l62 41h112l-182 -1134q-35 -219 -160 -336t-323 -117q-176 0 -377 84z M276 373q0 -109 34 -164t91 -55q179 0 347 361q47 105 75 192l39 215q-72 30 -177 30h-7q-162 0 -282 -148.5t-120 -430.5z" />
<glyph unicode="h" horiz-adv-x="1280" d="M113 0l225 1413l-172 41l18 113l375 10l-158 -889q6 18 23.5 53t61.5 102.5t96.5 123t133.5 97.5t169 42q223 0 223 -248q0 -49 -10 -121l-92 -573l172 -31l-19 -113l-375 -20l117 707q8 61 8 90q0 135 -106 135q-74 0 -145.5 -58.5t-121 -140.5t-87 -165t-56.5 -141 l-18 -58l-68 -369h-194z" />
<glyph unicode="i" horiz-adv-x="661" d="M113 963l20 112l375 10l-148 -921l175 -31l-19 -113l-377 -20l148 922zM313 1382q0 78 38 131.5t106 53.5q51 0 81.5 -28t30.5 -75q0 -78 -37.5 -131t-105.5 -53q-51 0 -82 27.5t-31 74.5z" />
<glyph unicode="j" horiz-adv-x="610" d="M-287 -461l41 133q51 -10 123 -10q106 0 155 61.5t74 204.5l160 994l-176 41l21 112l378 10l-192 -1177q-31 -188 -137.5 -294t-282.5 -106zM293 1382q0 78 38 131.5t105 53.5q51 0 82 -28t31 -75q0 -78 -37.5 -131t-105.5 -53q-51 0 -82 27.5t-31 74.5z" />
<glyph unicode="k" horiz-adv-x="1081" d="M113 0l227 1413l-174 41l18 113l375 10l-147 -911l151 2l221 272l-88 23l17 112l440 10l-20 -122l-154 -27l-283 -332q41 -35 109 -188l108 -252l179 -51l-21 -113h-301l-139 340q-45 109 -74 145.5t-88 36.5h-80l-82 -522h-194z" />
<glyph unicode="l" horiz-adv-x="655" d="M113 0l225 1413l-172 41l18 113l379 10l-225 -1413l176 -31l-18 -113z" />
<glyph unicode="m" horiz-adv-x="1933" d="M113 963l18 112l373 10l-88 -397q8 20 22.5 53t57.5 102.5t94 123t131 96.5t168 43q219 0 219 -250q0 -51 -10 -127q25 59 57.5 113.5t86.5 120t133 104.5t169 39q225 0 225 -252q0 -49 -10 -117l-94 -573l174 -31l-18 -113l-377 -20l117 707q8 61 8 88q0 137 -107 137 q-187 0 -346 -368q-49 -113 -76 -210l-55 -354h-194l114 707q8 61 8 90q0 135 -106 135q-72 0 -141.5 -58.5t-116.5 -140.5t-85 -165t-55 -141l-18 -58l-59 -369h-195l148 922z" />
<glyph unicode="n" horiz-adv-x="1310" d="M113 963l18 112l375 10l-92 -397q12 27 26.5 54.5t63.5 100t101 125t135 95.5t171 43q227 0 228 -252q0 -49 -11 -117l-94 -573l174 -31l-18 -113l-377 -20l115 707q8 61 8 90q0 135 -107 135q-190 0 -357 -359q-52 -110 -81 -204l-59 -369h-195l148 922z" />
<glyph unicode="o" d="M82 369q0 328 172 532.5t442 204.5q176 0 277.5 -106.5t101.5 -276.5q0 -338 -175 -540.5t-449 -202.5q-168 0 -268.5 106.5t-100.5 282.5zM287 379q0 -119 54 -177.5t151 -58.5q172 0 275 157t103 407q0 235 -213 235h-2q-170 0 -269 -165t-99 -398z" />
<glyph unicode="p" horiz-adv-x="1255" d="M-102 -471l18 113l174 51l197 1229l-168 41l18 112l371 10l-82 -376q10 27 35.5 74.5t83 128.5t148.5 137.5t194 56.5q129 0 199.5 -106.5t70.5 -262.5q0 -338 -182 -547.5t-436 -209.5q-111 0 -201 49l-53 -336l155 -51l-20 -113h-522zM360 164q86 -31 189 -31 q147 0 275 151.5t128 422.5q0 94 -33.5 159.5t-103.5 65.5q-72 0 -140.5 -57.5t-115.5 -138.5t-85 -161.5t-55 -138.5l-18 -57z" />
<glyph unicode="q" horiz-adv-x="1161" d="M96 338q0 358 182.5 563t428.5 205q63 0 121.5 -15.5t84.5 -30.5l27 -16l64 41h106l-223 -1392l155 -51l-18 -113h-530l18 113l180 51l47 307l90 379q-8 -16 -22 -43t-61.5 -95.5t-98.5 -121.5t-128 -96t-152 -43q-115 0 -193 102t-78 256zM301 369q0 -104 35 -159.5 t92 -55.5q70 0 138.5 57t118.5 138t89 162t60 138l20 58l41 215q-83 30 -182 30h-6q-164 0 -285 -149.5t-121 -433.5z" />
<glyph unicode="r" horiz-adv-x="888" d="M113 963l18 112l377 10l-80 -356q10 25 21.5 51.5t52.5 91t87 111.5t120.5 85t158.5 38q23 0 48.5 -5t39.5 -10l15 -6l-62 -307h-133v144q-166 0 -316 -360q-40 -95 -63 -173l-65 -389h-195l150 922z" />
<glyph unicode="s" horiz-adv-x="952" d="M41 31l49 297h133l2 -174q61 -25 154 -25q102 0 163.5 43t61.5 125q0 53 -46 94t-112.5 72t-133 67.5t-112.5 99t-46 148.5q0 162 116.5 245t296.5 83q66 0 141.5 -12.5t118.5 -25.5l43 -13l-49 -277h-133l-12 160q-45 18 -133 18t-141.5 -36.5t-53.5 -110.5 q0 -55 47 -99t115 -77t136.5 -70t115.5 -96t47 -139q0 -160 -126 -254t-335 -94q-74 0 -150.5 13t-116.5 25z" />
<glyph unicode="t" horiz-adv-x="755" d="M92 922l23 133l204 20l41 258l203 41l-49 -299h283l-25 -153h-283l-88 -547q-12 -80 -12 -129q0 -55 18.5 -79t61.5 -24q25 0 67 10.5t70 20.5l29 10l33 -110q-154 -94 -269 -94q-206 0 -206 241q0 61 12 133l90 568h-203z" />
<glyph unicode="u" horiz-adv-x="1294" d="M92 963l19 112l374 10l-112 -706q-8 -66 -8 -90q0 -135 106 -135q76 0 149.5 58t123 141t88 165t57.5 140l18 59l62 368h194l-147 -921l176 -31l-18 -113l-377 -20l84 397q-8 -20 -24.5 -54t-64 -102.5t-99.5 -123t-135 -96t-169 -41.5q-227 0 -227 249q0 47 10 119 l94 574z" />
<glyph unicode="v" horiz-adv-x="1183" d="M51 963l19 112l329 10l136 -737l20 -153l338 731l-150 37l19 112l452 10l-20 -122l-111 -33l-456 -930h-221l-193 924z" />
<glyph unicode="w" horiz-adv-x="1617" d="M41 963l18 112l330 10l103 -890l333 880l146 10l104 -890l301 729l-178 39l19 112l473 10l-21 -122l-100 -25l-412 -938h-235l-95 696l-26 -102l-230 -594h-231l-147 932z" />
<glyph unicode="x" horiz-adv-x="1116" d="M-51 0l18 113l187 57l284 367l-192 385l-174 41l18 112l322 10l174 -389l291 379l290 10l-20 -122l-176 -43l-287 -353l197 -403l178 -31l-19 -113l-315 -20l-190 406l-297 -406h-289z" />
<glyph unicode="y" d="M-10 -459l41 131q82 -10 153 -10q104 0 160.5 55.5t120.5 202.5l-266 1004l-158 39l18 112l330 10l172 -751l19 -139l303 731l-154 37l19 112l450 10l-20 -122l-115 -33l-365 -862q-139 -330 -231 -445t-246 -115z" />
<glyph unicode="z" horiz-adv-x="972" d="M20 0l11 143l655 789h-356l-66 -154h-133l47 307h764l-10 -133l-653 -792h385l65 168h123l-43 -328h-789z" />
<glyph unicode="{" horiz-adv-x="757" d="M68 532l24 144q104 0 152.5 55t64.5 158l58 350q31 190 125 269t286 79h74l-18 -133q-145 0 -202 -45t-79 -170l-59 -350q-35 -217 -226 -285q139 -55 140 -215q0 -33 -7 -70l-69 -432q-6 -39 -6 -69q0 -80 50 -113t171 -33l-23 -133h-75q-164 0 -238 55.5t-74 184.5 q0 41 10 108l70 432q6 37 6 72q0 70 -34.5 105.5t-120.5 35.5z" />
<glyph unicode="|" horiz-adv-x="542" d="M31 -471l321 2017h160l-322 -2017h-159z" />
<glyph unicode="}" horiz-adv-x="768" d="M-78 -461l23 133q141 0 202.5 46t79.5 169l68 432q33 215 229 285q-147 59 -147 219q0 33 6 66l59 350q6 37 7 68q0 82 -49.5 114.5t-172.5 32.5l23 133h86q156 0 228.5 -55t72.5 -184q0 -41 -10 -109l-60 -350q-6 -37 -6 -68q0 -145 164 -145l-23 -144q-106 0 -157 -55 t-66 -158l-67 -432q-31 -188 -126.5 -268t-279.5 -80h-84z" />
<glyph unicode="~" horiz-adv-x="1282" d="M123 500q4 8 14 22.5t43 50t70 62.5t93 49.5t116 22.5q96 0 214 -72t195 -72q102 0 201 115q5 6 4 6l84 -72q-6 -8 -16.5 -22.5t-45 -51t-69.5 -65.5t-88 -51.5t-104 -22.5q-96 0 -225.5 72t-205.5 72q-49 0 -98 -29t-75 -57l-25 -29z" />
<glyph unicode="&#xa1;" horiz-adv-x="624" d="M41 -430l197 1024l170 10l-136 -1034h-231zM242 952q0 72 42 123t115 51q113 0 113 -112q0 -70 -42 -122t-118 -52q-110 -1 -110 112z" />
<glyph unicode="&#xa2;" horiz-adv-x="993" d="M92 594q0 268 126 435t339 208l31 184l151 11l-30 -181q70 -2 138 -22.5t102 -39.5l34 -20l-51 -276h-133v174q-49 20 -133 20q-170 0 -269.5 -130t-99.5 -328q0 -104 63.5 -171t161.5 -67q39 0 75 5t58.5 10.5t53 18.5t41 18.5t39 21.5t30.5 18l62 -102 q-164 -117 -340 -148l-37 -233h-150l37 233q-129 23 -214 124.5t-85 236.5z" />
<glyph unicode="&#xa3;" horiz-adv-x="1265" d="M31 0l18 123l117 31q70 18 100.5 74.5t52.5 191.5q6 35 29 266h-209l21 129l202 23q12 125 25 206q31 193 147.5 301.5t319.5 108.5q239 0 401 -61l-55 -351h-115l-26 236q-111 12 -221 12q-209 0 -244 -205q-20 -127 -29 -235q0 -2 -1 -6t-1 -6h334l-25 -152h-321 q-18 -178 -29 -246q-14 -90 -48 -159.5t-59 -93.5l-26 -23h506l76 209h135l-62 -373h-1013z" />
<glyph unicode="&#xa4;" horiz-adv-x="1183" d="M51 225l176 158q-20 49 -20 121q0 182 104 319l-139 172l117 107l139 -170q115 72 248 72q119 0 196 -56l179 154l79 -107l-169 -151q25 -55 24 -127q0 -188 -108 -330l133 -162l-117 -106l-133 160q-104 -63 -234 -64q-131 0 -215 59l-180 -155zM385 530q0 -84 48 -129 t130 -45q106 0 175 89.5t69 232.5q0 184 -164 184q-115 0 -186.5 -90t-71.5 -242z" />
<glyph unicode="&#xa5;" horiz-adv-x="1239" d="M82 1311l18 112l338 11l205 -750l344 588l-153 39l20 112l526 11l-20 -123l-170 -41l-340 -533h244l-23 -143h-903l22 143h240l-156 533zM125 317l22 144h904l-23 -144h-369l-24 -153l170 -41l-21 -123h-559l21 123l184 41l25 153h-330z" />
<glyph unicode="&#xa6;" horiz-adv-x="557" d="M31 -543l133 840h160l-134 -840h-159zM236 748l131 819h159l-131 -819h-159z" />
<glyph unicode="&#xa7;" horiz-adv-x="1126" d="M72 -246l61 328h129l8 -215q51 -10 125 -10q86 0 158 59t72 154q0 63 -49.5 120.5t-119 104.5t-140 98t-120 125t-49.5 160q0 125 68 220t139 130q-31 72 -30 135q0 190 138 312t326 122q159 0 287 -61l-59 -328h-121l-14 215q-63 10 -115 11q-100 0 -172 -60.5 t-72 -152.5q0 -61 49.5 -119t119 -105t139 -97t118.5 -121.5t49 -155.5q0 -227 -206 -361q33 -61 32 -133q0 -186 -135 -311t-323 -125q-163 0 -293 61zM344 729q0 -66 59.5 -124t160 -123.5t145.5 -110.5q92 80 92 188q0 70 -58.5 127t-159 122.5t-145.5 111.5 q-94 -63 -94 -191z" />
<glyph unicode="&#xa8;" horiz-adv-x="1054" d="M209 1403q0 63 37 108t94 45q94 0 94 -94q0 -61 -39 -106t-94 -45q-43 0 -67.5 24.5t-24.5 67.5zM621 1403q0 63 36.5 108t94.5 45q94 0 94 -94q0 -61 -39 -106t-94 -45q-43 0 -67.5 24.5t-24.5 67.5z" />
<glyph unicode="&#xa9;" horiz-adv-x="1679" d="M92 706.5q0 321.5 212 534.5t536 213q326 0 536.5 -203.5t210.5 -523.5q0 -322 -221 -534.5t-547 -212.5q-324 0 -525.5 202.5t-201.5 524zM256 717q0 -262 156.5 -426t416.5 -164q262 0 428 165t166 425t-165.5 425t-428.5 165q-260 0 -416.5 -164t-156.5 -426zM471 702 q0 195 102.5 310.5t280.5 115.5q57 0 121.5 -15t101.5 -32l37 -16l-4 -217h-115l-28 139q-55 16 -127 17q-195 0 -195 -291q0 -262 205 -262q49 0 103.5 22.5t84.5 44.5l31 23l55 -95q-14 -14 -38.5 -35.5t-98 -57.5t-147.5 -36q-172 0 -270.5 98.5t-98.5 286.5z" />
<glyph unicode="&#xaa;" horiz-adv-x="972" d="M72 338l22 143h703l-23 -143h-702zM111 913q0 248 131 394.5t309 146.5q96 0 166 -47l43 33h100l-106 -658l135 -28l-12 -88l-302 -9l60 273q-10 -23 -29.5 -55.5t-62.5 -92t-105.5 -99.5t-128.5 -40q-90 0 -144 80t-54 190zM274 928q0 -74 26 -112t60 -38q74 0 148 97.5 t110 194.5l37 97l29 144q-59 20 -133 20q-104 0 -190.5 -100.5t-86.5 -302.5z" />
<glyph unicode="&#xab;" horiz-adv-x="1107" d="M123 498l18 123l328 297l104 -93l-260 -274l162 -305l-115 -82zM555 498l18 123l338 297l105 -93l-271 -274l173 -305l-115 -82z" />
<glyph unicode="&#xac;" horiz-adv-x="1259" d="M150 563l26 164h1004l-88 -553h-170l61 389h-833z" />
<glyph unicode="&#xad;" horiz-adv-x="786" d="M104 471l29 174h520l-28 -174h-521z" />
<glyph unicode="&#xae;" horiz-adv-x="1474" d="M113 921.5q0 268.5 178 446.5t446 178q270 0 447.5 -169t177.5 -435t-187.5 -445.5t-457.5 -179.5q-268 0 -436 168t-168 436.5zM266 932q0 -217 124 -349t337 -132q215 0 348 133t133 348t-133 348t-348 133q-213 0 -337 -132t-124 -349zM440 604v82l82 21v475l-82 16 v76l308 6q104 0 171.5 -50t67.5 -138q0 -133 -127 -181q37 -37 58 -75l65 -129l82 -21v-82h-176l-82 174q-33 72 -52.5 89.5t-60.5 17.5h-39v-178l82 -21v-82h-297zM655 979h72q55 0 89 26.5t34 75.5q0 45 -30 71t-83 26h-82v-199z" />
<glyph unicode="&#xaf;" horiz-adv-x="563" d="M0 1352l23 153h540l-22 -153h-541z" />
<glyph unicode="&#xb0;" horiz-adv-x="839" d="M115 1176q0 133 94 231t237 98q121 0 199 -69.5t78 -202.5q0 -135 -95.5 -238.5t-236.5 -103.5q-119 0 -197.5 74t-78.5 211zM262 1188q0 -82 39 -123t102 -41q76 0 124 54.5t48 140.5q0 74 -39 113.5t-102 39.5q-76 0 -124 -53t-48 -131z" />
<glyph unicode="&#xb1;" horiz-adv-x="1261" d="M31 0l24 160h1014l-25 -160h-1013zM131 618l25 160h419l54 328h176l-53 -328h417l-26 -160h-416l-53 -331h-176l53 331h-420z" />
<glyph unicode="&#xb2;" horiz-adv-x="798" d="M8 573l23 142q57 43 139 102.5t119 87t89 69.5t74.5 65.5t46 55t32 60.5t8.5 62q0 94 -133 94q-33 0 -65 -5.5t-47 -10.5l-15 -5l-31 -123h-121l27 224q154 53 278 53q291 0 291 -197q0 -57 -21.5 -112.5t-48 -95.5t-83 -91t-90.5 -76.5t-107.5 -79t-100.5 -73.5h394 l-25 -146h-633z" />
<glyph unicode="&#xb3;" horiz-adv-x="774" d="M-8 641l57 121q111 -61 236 -62q84 0 136 38t52 106q0 104 -164 104h-92l19 125h94q195 0 194 146q0 92 -129 92l-139 -19l-25 -98h-116l26 211q166 39 287 39q266 -1 266 -189q0 -90 -57 -150.5t-152 -82.5q68 -6 115 -48t47 -108q0 -147 -111.5 -225t-277.5 -78 q-63 0 -130 19.5t-101 39.5z" />
<glyph unicode="&#xb4;" horiz-adv-x="495" d="M14 1343l422 302l88 -154l-446 -256z" />
<glyph unicode="&#xb5;" horiz-adv-x="1349" d="M113 -471l237 1393l-178 41l21 112l378 10q-131 -758 -131 -794q0 -137 109 -137q190 0 354 359q50 110 78 204l68 368h194l-151 -921l176 -41l-21 -113l-370 -10l84 397q-8 -20 -25.5 -54t-64 -102.5t-99.5 -123t-136 -96t-169 -41.5q-43 0 -84 20l-82 -471h-188z" />
<glyph unicode="&#x3bc;" horiz-adv-x="1349" d="M113 -471l237 1393l-178 41l21 112l378 10q-131 -758 -131 -794q0 -137 109 -137q190 0 354 359q50 110 78 204l68 368h194l-151 -921l176 -41l-21 -113l-370 -10l84 397q-8 -20 -25.5 -54t-64 -102.5t-99.5 -123t-136 -96t-169 -41.5q-43 0 -84 20l-82 -471h-188z" />
<glyph unicode="&#xb6;" horiz-adv-x="1290" d="M152 -348l18 123l190 41l129 811q-127 18 -205.5 109t-78.5 227q0 201 137 336t342 135h256l346 -11l-18 -112l-176 -41l-261 -1618h-176l260 1618h-159l-260 -1618h-344z" />
<glyph unicode="&#xb7;" horiz-adv-x="563" d="M143 590q0 72 45 127t119 55q113 0 113 -113q0 -72 -42 -127t-118 -55q-117 0 -117 113z" />
<glyph unicode="&#xb8;" horiz-adv-x="892" d="M221 -401l62 84q63 -33 135 -33q47 0 83 27.5t36 72.5q0 88 -150 88l27 162h121l-15 -88q147 -27 148 -148q0 -90 -70 -151.5t-164 -61.5q-61 0 -114.5 11.5t-75.5 23.5z" />
<glyph unicode="&#xb9;" horiz-adv-x="716" d="M72 573l20 134h176l86 550l-225 -131l-45 113l324 195h139l-115 -727h176l-22 -134h-514z" />
<glyph unicode="&#xba;" horiz-adv-x="1026" d="M72 338l22 143h703l-23 -143h-702zM150 940q0 227 129.5 370.5t336.5 143.5q147 0 227.5 -75.5t80.5 -217.5q0 -225 -124 -370.5t-333 -145.5q-154 0 -235.5 75t-81.5 220zM317 969q0 -94 50.5 -142.5t136.5 -48.5q115 0 183.5 95.5t68.5 246.5q0 94 -44 146.5t-126 52.5 q-123 0 -196 -93t-73 -257z" />
<glyph unicode="&#xbb;" horiz-adv-x="1107" d="M92 254l270 276l-172 306l115 82l248 -334l-18 -123l-338 -297zM535 254l260 276l-162 306l115 82l237 -334l-18 -123l-328 -297z" />
<glyph unicode="&#xbc;" horiz-adv-x="1986" d="M164 573l20 134h187l86 542l-232 -133l-49 123l334 195h149l-114 -727h184l-22 -134h-543zM342 0l1040 1434h189l-1041 -1434h-188zM1032 186l6 121l498 574l193 -21l-87 -541h146l-23 -133h-145l-29 -186h-172l29 186h-416zM1214 319h259l57 367z" />
<glyph unicode="&#xbd;" horiz-adv-x="1888" d="M102 573l21 134h186l86 542l-231 -133l-49 123l334 195h149l-115 -727h185l-23 -134h-543zM287 0l1040 1434h189l-1041 -1434h-188zM1018 0l22 141q57 43 139.5 102.5t119 87t89 69.5t75 65.5t46 55.5t31.5 60.5t8 61.5q0 94 -133 94q-33 0 -64.5 -5t-46.5 -10l-16 -5 l-31 -123h-120l26 223q154 53 279 53q291 0 291 -196q0 -55 -22.5 -110.5t-47.5 -93.5t-84 -92t-88 -78t-110 -82t-99 -73h393l-24 -145h-633z" />
<glyph unicode="&#xbe;" horiz-adv-x="1996" d="M102 641l58 121q111 -61 235 -62q84 0 136.5 38t52.5 106q0 104 -164 104h-92l18 125h94q195 0 195 146q0 92 -129 92l-139 -19l-25 -98h-117l27 211q166 39 287 39q266 -1 266 -189q0 -90 -57.5 -150.5t-151.5 -82.5q68 -6 115 -48t47 -108q0 -147 -111.5 -225 t-277.5 -78q-63 0 -130 19.5t-102 39.5zM367 0l1040 1434h188l-1040 -1434h-188zM1057 186l6 121l498 574l192 -21l-86 -541h145l-22 -133h-145l-29 -186h-172l29 186h-416zM1239 319h258l57 367z" />
<glyph unicode="&#xbf;" horiz-adv-x="927" d="M20 -154q0 96 50.5 183.5t122 150t143.5 118.5t122 115.5t50 116.5v93l178 12v-131q0 -76 -46 -143.5t-112.5 -120t-133 -104.5t-112.5 -116.5t-46 -136.5q0 -133 188 -133l215 25l10 -148q-147 -47 -280 -47q-348 0 -349 266zM504 952q0 72 42 123t116 51 q113 0 112 -112q0 -70 -42 -122t-118 -52q-110 -1 -110 112z" />
<glyph unicode="&#xc0;" horiz-adv-x="1445" d="M-82 0l19 123l174 41l655 1259l203 11l245 -1276l140 -35l-21 -123h-542l18 123l176 41l-41 225h-522l-113 -227l172 -39l-20 -123h-543zM502 553h413l-104 616zM639 1724l76 162l446 -250l-55 -112z" />
<glyph unicode="&#xc1;" horiz-adv-x="1445" d="M-82 0l19 123l174 41l655 1259l203 11l245 -1276l140 -35l-21 -123h-542l18 123l176 41l-41 225h-522l-113 -227l172 -39l-20 -123h-543zM502 553h413l-104 616zM698 1640l447 244l76 -162l-467 -194z" />
<glyph unicode="&#xc2;" horiz-adv-x="1445" d="M-82 0l19 123l174 41l655 1259l203 11l245 -1276l140 -35l-21 -123h-542l18 123l176 41l-41 225h-522l-113 -227l172 -39l-20 -123h-543zM502 553h413l-104 616zM567 1628l330 225l121 11l252 -236l-96 -92l-236 170l-305 -170z" />
<glyph unicode="&#xc3;" horiz-adv-x="1445" d="M-82 0l19 123l174 41l655 1259l203 11l245 -1276l140 -35l-21 -123h-542l18 123l176 41l-41 225h-522l-113 -227l172 -39l-20 -123h-543zM502 553h413l-104 616zM553 1630q4 8 12 20.5t35 46.5t55.5 59.5t69.5 46t80 20.5q72 0 175 -47t161 -47q79 2 143 86l62 -62 q-4 -8 -11.5 -20.5t-33 -44t-52 -56t-66.5 -44t-79 -19.5q-72 0 -175.5 45t-160.5 45q-35 0 -74 -22.5t-60 -45.5l-22 -22z" />
<glyph unicode="&#xc4;" horiz-adv-x="1445" d="M-82 0l19 123l174 41l655 1259l203 11l245 -1276l140 -35l-21 -123h-542l18 123l176 41l-41 225h-522l-113 -227l172 -39l-20 -123h-543zM502 553h413l-104 616zM678 1659q0 63 37 108t94 45q94 0 94 -94q0 -61 -39 -106t-94 -45q-43 0 -67.5 24.5t-24.5 67.5zM1090 1659 q0 63 36.5 108t94.5 45q94 0 94 -94q0 -61 -39 -106t-94 -45q-43 0 -67.5 24.5t-24.5 67.5z" />
<glyph unicode="&#xc5;" horiz-adv-x="1445" d="M-82 0l19 123l174 41l655 1259l203 11l245 -1276l140 -35l-21 -123h-542l18 123l176 41l-41 225h-522l-113 -227l172 -39l-20 -123h-543zM502 553h413l-104 616zM680 1581q0 109 82 191.5t188 82.5q82 0 140.5 -50t58.5 -136q0 -109 -82 -191.5t-188 -82.5 q-86 0 -142.5 51t-56.5 135zM801 1593q0 -96 94 -96q59 0 96 48t37 112q0 96 -92 96q-59 0 -97 -48t-38 -112z" />
<glyph unicode="&#xc6;" horiz-adv-x="1964" d="M-76 0l21 123l174 41l731 1106l-162 41l19 112l391 11h823l-55 -349h-115l-20 185h-453l-72 -441h467l-24 -163h-467l-80 -502h465l75 209h136l-64 -373h-1018l21 123l180 41l41 256h-444l-170 -262l153 -35l-20 -123h-533zM598 584h365l110 686h-35z" />
<glyph unicode="&#xc7;" horiz-adv-x="1286" d="M123 500q0 418 227.5 686t575.5 268q214 0 427 -100l5 -2l-55 -348h-119l-25 225q-125 51 -274 51q-158 0 -283 -106.5t-189.5 -274.5t-64.5 -360q0 -170 89 -274.5t235 -104.5q238 0 454 159l74 -120q-272 -219 -569 -219q-238 0 -373 140t-135 380zM395 -401l62 84 q63 -33 135 -33q47 0 83 27.5t36 72.5q0 88 -150 88l27 162h121l-15 -88q147 -27 148 -148q0 -90 -70 -151.5t-164 -61.5q-61 0 -114.5 11.5t-75.5 23.5z" />
<glyph unicode="&#xc8;" horiz-adv-x="1183" d="M10 0l21 123l180 41l176 1106l-168 41l19 112l380 11h617l-55 -349h-115l-21 185h-452l-72 -441h467l-24 -163h-467l-80 -502h465l75 209h136l-64 -373h-1018zM500 1724l75 162l447 -250l-55 -112z" />
<glyph unicode="&#xc9;" horiz-adv-x="1179" d="M6 0l21 123l180 41l176 1106l-168 41l18 112l381 11h617l-55 -349h-115l-21 185h-452l-72 -441h467l-25 -163h-466l-80 -502h465l75 209h135l-63 -373h-1018zM643 1640l447 244l75 -162l-467 -194z" />
<glyph unicode="&#xca;" horiz-adv-x="1183" d="M10 0l21 123l180 41l176 1106l-168 41l19 112l380 11h617l-55 -349h-115l-21 185h-452l-72 -441h467l-24 -163h-467l-80 -502h465l75 209h136l-64 -373h-1018zM455 1628l329 225l121 11l252 -236l-96 -92l-236 170l-305 -170z" />
<glyph unicode="&#xcb;" horiz-adv-x="1183" d="M10 0l21 123l180 41l176 1106l-168 41l19 112l380 11h617l-55 -349h-115l-21 185h-452l-72 -441h467l-24 -163h-467l-80 -502h465l75 209h136l-64 -373h-1018zM492 1659q0 63 36.5 108t94.5 45q94 0 94 -94q0 -61 -39 -106t-94 -45q-43 0 -67.5 24.5t-24.5 67.5z M903 1659q0 63 37 108t94 45q94 0 94 -94q0 -61 -38.5 -106t-94.5 -45q-43 0 -67.5 24.5t-24.5 67.5z" />
<glyph unicode="&#xcc;" horiz-adv-x="765" d="M20 0l21 123l184 41l176 1106l-172 41l19 112l559 11l-21 -123l-180 -41l-178 -1106l172 -41l-20 -123h-560zM231 1724l76 162l447 -250l-56 -112z" />
<glyph unicode="&#xcd;" horiz-adv-x="874" d="M20 0l21 123l184 41l176 1106l-172 41l19 112l559 11l-21 -123l-180 -41l-178 -1106l172 -41l-20 -123h-560zM393 1640l447 244l75 -162l-466 -194z" />
<glyph unicode="&#xce;" horiz-adv-x="856" d="M20 0l21 123l184 41l176 1106l-172 41l19 112l559 11l-21 -123l-180 -41l-178 -1106l172 -41l-20 -123h-560zM215 1628l320 225l120 11l242 -236l-96 -92l-226 170l-294 -170z" />
<glyph unicode="&#xcf;" horiz-adv-x="843" d="M20 0l21 123l184 41l176 1106l-172 41l19 112l559 11l-21 -123l-180 -41l-178 -1106l172 -41l-20 -123h-560zM248 1659q0 63 37 108t94 45q94 0 94 -94q0 -61 -39 -106t-94 -45q-43 0 -67.5 24.5t-24.5 67.5zM659 1659q0 63 37 108t95 45q94 0 94 -94q0 -61 -39 -106 t-94 -45q-43 0 -68 24.5t-25 67.5z" />
<glyph unicode="&#xd0;" horiz-adv-x="1521" d="M61 0l21 123l176 39l82 504h-172l27 163h170l71 441l-166 41l19 112l379 11h264q229 0 370.5 -129t141.5 -353q0 -455 -225.5 -703.5t-614.5 -248.5h-543zM467 164h168q279 0 436.5 209t157.5 553q0 164 -84 254t-244 90h-258l-72 -441h312l-23 -163h-313z" />
<glyph unicode="&#xd1;" horiz-adv-x="1609" d="M10 0h533l22 123l-168 41l158 989l500 -1153h231l201 1270l174 41l20 123l-522 -11l-18 -112l164 -41l-156 -981l-479 1145l-430 -11l-19 -112l170 -41l-176 -1106l-182 -41zM547 1630q4 8 12 20.5t35 46.5t55.5 59.5t69.5 46t80 20.5q72 0 175 -47t161 -47q79 2 143 86 l61 -62q-4 -8 -11 -20.5t-32.5 -44t-52 -56t-66.5 -44t-79 -19.5q-72 0 -175.5 45t-160.5 45q-35 0 -74 -22.5t-60 -45.5l-22 -22z" />
<glyph unicode="&#xd2;" horiz-adv-x="1515" d="M123 479q0 -231 132 -365t361 -134q358 0 593 266t235 706q0 225 -137.5 363.5t-380.5 138.5q-346 0 -574.5 -272.5t-228.5 -702.5zM348 500q0 324 151.5 552t391.5 228q154 0 241 -87t87 -267q0 -332 -157 -552t-400 -220q-147 0 -230.5 88t-83.5 258zM618 1724l76 162 l447 -250l-56 -112z" />
<glyph unicode="&#xd3;" horiz-adv-x="1515" d="M123 479q0 -231 132 -365t361 -134q358 0 593 266t235 706q0 225 -137.5 363.5t-380.5 138.5q-346 0 -574.5 -272.5t-228.5 -702.5zM348 500q0 324 151.5 552t391.5 228q154 0 241 -87t87 -267q0 -332 -157 -552t-400 -220q-147 0 -230.5 88t-83.5 258zM709 1640l446 244 l76 -162l-467 -194z" />
<glyph unicode="&#xd4;" horiz-adv-x="1515" d="M123 479q0 -231 132 -365t361 -134q358 0 593 266t235 706q0 225 -137.5 363.5t-380.5 138.5q-346 0 -574.5 -272.5t-228.5 -702.5zM348 500q0 324 151.5 552t391.5 228q154 0 241 -87t87 -267q0 -332 -157 -552t-400 -220q-147 0 -230.5 88t-83.5 258zM555 1628l330 225 l121 11l251 -236l-96 -92l-235 170l-305 -170z" />
<glyph unicode="&#xd5;" horiz-adv-x="1515" d="M123 479q0 -231 132 -365t361 -134q358 0 593 266t235 706q0 225 -137.5 363.5t-380.5 138.5q-346 0 -574.5 -272.5t-228.5 -702.5zM348 500q0 324 151.5 552t391.5 228q154 0 241 -87t87 -267q0 -332 -157 -552t-400 -220q-147 0 -230.5 88t-83.5 258zM553 1630 q4 8 12 20.5t35 46.5t55.5 59.5t69.5 46t80 20.5q72 0 175 -47t161 -47q79 2 143 86l62 -62q-4 -8 -11.5 -20.5t-33 -44t-52 -56t-66.5 -44t-79 -19.5q-72 0 -175.5 45t-160.5 45q-35 0 -74 -22.5t-60 -45.5l-22 -22z" />
<glyph unicode="&#xd6;" horiz-adv-x="1515" d="M123 479q0 -231 132 -365t361 -134q358 0 593 266t235 706q0 225 -137.5 363.5t-380.5 138.5q-346 0 -574.5 -272.5t-228.5 -702.5zM348 500q0 324 151.5 552t391.5 228q154 0 241 -87t87 -267q0 -332 -157 -552t-400 -220q-147 0 -230.5 88t-83.5 258zM629 1659 q0 63 36.5 108t94.5 45q94 0 94 -94q0 -61 -39 -106t-94 -45q-43 0 -67.5 24.5t-24.5 67.5zM1040 1659q0 63 37 108t94 45q94 0 95 -94q0 -61 -39 -106t-94 -45q-43 0 -68 24.5t-25 67.5z" />
<glyph unicode="&#xd7;" horiz-adv-x="1288" d="M102 166l430 377l-309 377l131 114l308 -377l430 377l94 -114l-428 -377l307 -377l-131 -115l-307 377l-430 -377z" />
<glyph unicode="&#xd8;" horiz-adv-x="1566" d="M53 -143l201 268q-119 135 -119 354q0 430 224.5 702.5t568.5 272.5q158 0 274 -63l162 217l117 -72l-170 -227q125 -129 125 -336q0 -455 -230 -724t-588 -269q-147 0 -256 59l-190 -254zM350 500q0 -113 39 -195l696 932q-72 43 -192 43q-240 0 -391.5 -228 t-151.5 -552zM481 201q72 -47 183 -47q246 0 401.5 223t155.5 569q0 111 -39 189z" />
<glyph unicode="&#xd9;" horiz-adv-x="1505" d="M154 1311l18 112l561 11l-20 -123l-178 -41l-115 -717q-12 -74 -12 -141q0 -125 62 -191.5t218 -66.5q182 0 272.5 98t126.5 332l111 686l-184 41l18 112l565 11l-20 -123l-172 -41l-107 -666q-47 -305 -197.5 -464.5t-451.5 -159.5q-242 0 -346 107.5t-104 301.5 q0 63 14 164l115 717zM596 1724l76 162l446 -250l-55 -112z" />
<glyph unicode="&#xda;" horiz-adv-x="1505" d="M154 1311l18 112l561 11l-20 -123l-178 -41l-115 -717q-12 -74 -12 -141q0 -125 62 -191.5t218 -66.5q182 0 272.5 98t126.5 332l111 686l-184 41l18 112l565 11l-20 -123l-172 -41l-107 -666q-47 -305 -197.5 -464.5t-451.5 -159.5q-242 0 -346 107.5t-104 301.5 q0 63 14 164l115 717zM778 1640l447 244l75 -162l-466 -194z" />
<glyph unicode="&#xdb;" horiz-adv-x="1505" d="M154 1311l18 112l561 11l-20 -123l-178 -41l-115 -717q-12 -74 -12 -141q0 -125 62 -191.5t218 -66.5q182 0 272.5 98t126.5 332l111 686l-184 41l18 112l565 11l-20 -123l-172 -41l-107 -666q-47 -305 -197.5 -464.5t-451.5 -159.5q-242 0 -346 107.5t-104 301.5 q0 63 14 164l115 717zM573 1628l330 225l121 11l252 -236l-96 -92l-236 170l-305 -170z" />
<glyph unicode="&#xdc;" horiz-adv-x="1505" d="M154 1311l18 112l561 11l-20 -123l-178 -41l-115 -717q-12 -74 -12 -141q0 -125 62 -191.5t218 -66.5q182 0 272.5 98t126.5 332l111 686l-184 41l18 112l565 11l-20 -123l-172 -41l-107 -666q-47 -305 -197.5 -464.5t-451.5 -159.5q-242 0 -346 107.5t-104 301.5 q0 63 14 164l115 717zM608 1659q0 63 37 108t94 45q94 0 94 -94q0 -61 -39 -106t-94 -45q-43 0 -67.5 24.5t-24.5 67.5zM1020 1659q0 63 36.5 108t94.5 45q94 0 94 -94q0 -61 -39 -106t-94 -45q-43 0 -67.5 24.5t-24.5 67.5z" />
<glyph unicode="&#xdd;" horiz-adv-x="1247" d="M82 1311l18 112l338 11l205 -750l344 588l-153 39l20 112l526 11l-20 -123l-170 -41l-506 -797l-49 -309l170 -41l-21 -123h-559l21 123l184 41l57 373l-213 733zM666 1640l446 244l76 -162l-467 -194z" />
<glyph unicode="&#xde;" horiz-adv-x="1239" d="M-25 0l19 123l180 41l176 1106l-166 41l17 112l557 11l-21 -123l-178 -41l-18 -113h213q190 0 294.5 -81t104.5 -226q0 -246 -166 -389.5t-438 -143.5h-143l-25 -153l168 -41l-21 -123h-553zM432 481h148q174 0 271 84t97 236q0 192 -231 192h-203z" />
<glyph unicode="&#xdf;" horiz-adv-x="1486" d="M-139 -471l26 145h115q203 0 242 244l159 1004h-213l21 133l217 20l10 58q41 221 176.5 342.5t341.5 121.5q182 0 294 -65.5t112 -204.5q0 -80 -35 -146.5t-85 -109.5t-100 -82t-85 -82t-35 -90q0 -61 61.5 -108t134 -76t134 -93.5t61.5 -158.5q0 -166 -147.5 -283.5 t-327.5 -117.5q-76 0 -149.5 11t-108.5 22l-35 12l47 294h129l6 -165q37 -20 134 -21q100 0 166.5 52.5t66.5 131.5q0 51 -40 90t-97.5 68t-113.5 60.5t-96 86t-40 128.5q0 90 36 157.5t87 109.5t102 79t87 86t36 108q0 154 -213 154q-111 0 -195.5 -75t-107.5 -214 l-195 -1196q-72 -451 -428 -451z" />
<glyph unicode="&#xe0;" horiz-adv-x="1208" d="M92 338q0 356 181.5 562t428.5 206q59 0 117 -15.5t85 -30.5l28 -16l61 41h113l-148 -921l179 -31l-19 -113l-381 -20l82 377q-14 -29 -27.5 -53.5t-61.5 -95t-96 -119t-123 -89t-151 -40.5q-115 0 -191.5 102t-76.5 256zM297 369q0 -104 35 -159.5t90 -55.5 q70 0 138.5 57t117.5 138t89 162t59 138l20 58l41 215q-76 30 -178 30h-7q-164 0 -284.5 -148.5t-120.5 -434.5zM379 1491l88 154l422 -302l-64 -108z" />
<glyph unicode="&#xe1;" horiz-adv-x="1208" d="M92 338q0 356 181.5 562t428.5 206q59 0 117 -15.5t85 -30.5l28 -16l61 41h113l-148 -921l179 -31l-19 -113l-381 -20l82 377q-14 -29 -27.5 -53.5t-61.5 -95t-96 -119t-123 -89t-151 -40.5q-115 0 -191.5 102t-76.5 256zM297 369q0 -104 35 -159.5t90 -55.5 q70 0 138.5 57t117.5 138t89 162t59 138l20 58l41 215q-76 30 -178 30h-7q-164 0 -284.5 -148.5t-120.5 -434.5zM526 1343l422 302l88 -154l-446 -256z" />
<glyph unicode="&#xe2;" horiz-adv-x="1208" d="M92 338q0 356 181.5 562t428.5 206q59 0 117 -15.5t85 -30.5l28 -16l61 41h113l-148 -921l179 -31l-19 -113l-381 -20l82 377q-14 -29 -27.5 -53.5t-61.5 -95t-96 -119t-123 -89t-151 -40.5q-115 0 -191.5 102t-76.5 256zM297 369q0 -104 35 -159.5t90 -55.5 q70 0 138.5 57t117.5 138t89 162t59 138l20 58l41 215q-76 30 -178 30h-7q-164 0 -284.5 -148.5t-120.5 -434.5zM356 1356l332 266l121 10l249 -276l-94 -92l-235 200l-305 -200z" />
<glyph unicode="&#xe3;" horiz-adv-x="1208" d="M92 338q0 356 181.5 562t428.5 206q59 0 117 -15.5t85 -30.5l28 -16l61 41h113l-148 -921l179 -31l-19 -113l-381 -20l82 377q-14 -29 -27.5 -53.5t-61.5 -95t-96 -119t-123 -89t-151 -40.5q-115 0 -191.5 102t-76.5 256zM297 369q0 -104 35 -159.5t90 -55.5 q70 0 138.5 57t117.5 138t89 162t59 138l20 58l41 215q-76 30 -178 30h-7q-164 0 -284.5 -148.5t-120.5 -434.5zM336 1372q4 8 12 20.5t35 46.5t55.5 59.5t69.5 46t80 20.5q72 0 169 -47.5t154 -47.5q78 1 146 86l59 -71q-4 -8 -11 -20.5t-32.5 -44t-52.5 -56.5t-66.5 -44.5 t-78.5 -19.5q-72 0 -170.5 45.5t-155.5 45.5q-37 0 -76 -22.5t-59 -45.5l-21 -23z" />
<glyph unicode="&#xe4;" horiz-adv-x="1208" d="M92 338q0 356 181.5 562t428.5 206q59 0 117 -15.5t85 -30.5l28 -16l61 41h113l-148 -921l179 -31l-19 -113l-381 -20l82 377q-14 -29 -27.5 -53.5t-61.5 -95t-96 -119t-123 -89t-151 -40.5q-115 0 -191.5 102t-76.5 256zM297 369q0 -104 35 -159.5t90 -55.5 q70 0 138.5 57t117.5 138t89 162t59 138l20 58l41 215q-76 30 -178 30h-7q-164 0 -284.5 -148.5t-120.5 -434.5zM410 1403q0 63 37 108t94 45q94 0 94 -94q0 -61 -39 -106t-94 -45q-43 0 -67.5 24.5t-24.5 67.5zM822 1403q0 63 36.5 108t94.5 45q94 0 94 -94q0 -61 -39 -106 t-94 -45q-43 0 -67.5 24.5t-24.5 67.5z" />
<glyph unicode="&#xe5;" horiz-adv-x="1208" d="M92 338q0 356 181.5 562t428.5 206q59 0 117 -15.5t85 -30.5l28 -16l61 41h113l-148 -921l179 -31l-19 -113l-381 -20l82 377q-14 -29 -27.5 -53.5t-61.5 -95t-96 -119t-123 -89t-151 -40.5q-115 0 -191.5 102t-76.5 256zM297 369q0 -104 35 -159.5t90 -55.5 q70 0 138.5 57t117.5 138t89 162t59 138l20 58l41 215q-76 30 -178 30h-7q-164 0 -284.5 -148.5t-120.5 -434.5zM594 1405q0 109 82 191.5t188 82.5q82 0 140.5 -50t58.5 -136q0 -109 -82 -191.5t-189 -82.5q-86 0 -142 51t-56 135zM715 1417q0 -96 94 -96q59 0 96 48 t37 112q0 96 -92 96q-59 0 -97 -48t-38 -112z" />
<glyph unicode="&#xe6;" horiz-adv-x="1636" d="M61 225q0 186 134.5 279.5t367.5 93.5h156l26 170q4 29 5 41q0 143 -162 143q-57 0 -109.5 -7t-76.5 -15l-23 -8l-57 -154h-117l33 256q213 82 395 82q127 0 193.5 -38t82.5 -122q147 160 348 160q156 0 247 -72.5t91 -193.5q0 -180 -193.5 -281.5t-516.5 -101.5 q-6 -49 -6 -92q0 -113 55 -167.5t170 -54.5q66 0 147.5 22.5t130.5 46.5l50 24l61 -105q-23 -16 -65 -42t-160.5 -67.5t-225.5 -41.5q-256 0 -325 217q-78 -96 -186.5 -156.5t-213.5 -60.5q-117 0 -186.5 65.5t-69.5 179.5zM256 266q0 -53 39 -88t94 -35q111 0 202 102.5 t107 219.5h-137q-305 0 -305 -199zM903 600q225 0 361.5 56.5t136.5 162.5q0 133 -154 133q-111 0 -207 -99t-137 -253z" />
<glyph unicode="&#xe7;" horiz-adv-x="952" d="M72 358q0 334 170 541t434 207q74 0 145.5 -20.5t106.5 -41.5l35 -20l-45 -276h-134l-6 174q-49 20 -133 20q-168 0 -268.5 -169t-100.5 -404q0 -225 195 -226q141 1 307 93l62 -103q-23 -16 -63 -41.5t-148.5 -68.5t-198.5 -43q-160 0 -259 100t-99 278zM205 -401l62 84 q63 -33 135 -33q47 0 83 27.5t36 72.5q0 88 -150 88l27 162h121l-15 -88q147 -27 148 -148q0 -90 -70 -151.5t-164 -61.5q-61 0 -114.5 11.5t-75.5 23.5z" />
<glyph unicode="&#xe8;" horiz-adv-x="1032" d="M61 338q0 324 173.5 546t418.5 222q156 0 247 -72.5t91 -193.5q0 -176 -199.5 -286t-519.5 -110q-6 -47 -6 -88q0 -213 226 -213q66 0 149.5 22.5t134.5 46.5l51 24l62 -105q-25 -16 -68 -42t-163.5 -67.5t-227.5 -41.5q-168 0 -268.5 98t-100.5 260zM291 588 q219 0 362.5 65.5t143.5 165.5q0 133 -154 133q-113 0 -213 -102t-139 -262zM373 1491l88 154l422 -302l-64 -108z" />
<glyph unicode="&#xe9;" horiz-adv-x="1038" d="M61 338q0 324 173.5 546t418.5 222q156 0 247 -72.5t91 -193.5q0 -176 -199.5 -286t-519.5 -110q-6 -47 -6 -88q0 -213 226 -213q66 0 149.5 22.5t134.5 46.5l51 24l62 -105q-25 -16 -68 -42t-163.5 -67.5t-227.5 -41.5q-168 0 -268.5 98t-100.5 260zM291 588 q219 0 362.5 65.5t143.5 165.5q0 133 -154 133q-113 0 -213 -102t-139 -262zM487 1343l422 302l88 -154l-446 -256z" />
<glyph unicode="&#xea;" horiz-adv-x="1032" d="M61 338q0 324 173.5 546t418.5 222q156 0 247 -72.5t91 -193.5q0 -176 -199.5 -286t-519.5 -110q-6 -47 -6 -88q0 -213 226 -213q66 0 149.5 22.5t134.5 46.5l51 24l62 -105q-25 -16 -68 -42t-163.5 -67.5t-227.5 -41.5q-168 0 -268.5 98t-100.5 260zM287 1356l331 266 l121 10l250 -276l-94 -92l-236 200l-305 -200zM291 588q219 0 362.5 65.5t143.5 165.5q0 133 -154 133q-113 0 -213 -102t-139 -262z" />
<glyph unicode="&#xeb;" horiz-adv-x="1060" d="M61 338q0 324 173.5 546t418.5 222q156 0 247 -72.5t91 -193.5q0 -176 -199.5 -286t-519.5 -110q-6 -47 -6 -88q0 -213 226 -213q66 0 149.5 22.5t134.5 46.5l51 24l62 -105q-25 -16 -68 -42t-163.5 -67.5t-227.5 -41.5q-168 0 -268.5 98t-100.5 260zM291 588 q219 0 362.5 65.5t143.5 165.5q0 133 -154 133q-113 0 -213 -102t-139 -262zM383 1403q0 63 37 108t94 45q94 0 94 -94q0 -61 -39 -106t-94 -45q-43 0 -67.5 24.5t-24.5 67.5zM795 1403q0 63 36.5 108t94.5 45q94 0 94 -94q0 -61 -39 -106t-94 -45q-43 0 -67.5 24.5 t-24.5 67.5z" />
<glyph unicode="&#xec;" horiz-adv-x="690" d="M113 963l174 -41l-148 -922l377 20l19 113l-175 31l148 921l-375 -10zM129 1491l88 154l422 -302l-64 -108z" />
<glyph unicode="&#xed;" horiz-adv-x="694" d="M113 963l174 -41l-148 -922l377 20l19 113l-175 31l148 921l-375 -10zM266 1343l422 302l88 -154l-446 -256z" />
<glyph unicode="&#xee;" horiz-adv-x="692" d="M51 1356l322 266l121 10l239 -276l-100 -92l-219 200l-291 -200zM113 963l174 -41l-148 -922l377 20l19 113l-175 31l148 921l-375 -10z" />
<glyph unicode="&#xef;" horiz-adv-x="690" d="M113 963l174 -41l-148 -922l377 20l19 113l-175 31l148 921l-375 -10zM115 1403q0 63 36.5 108t94.5 45q94 0 94 -94q0 -61 -39 -106t-94 -45q-43 0 -67.5 24.5t-24.5 67.5zM485 1403q0 63 37 108t94 45q94 0 95 -94q0 -61 -39 -106t-94 -45q-43 0 -68 24.5t-25 67.5z " />
<glyph unicode="&#xf0;" horiz-adv-x="1218" d="M41 379q0 293 165 484.5t419 191.5q148 -2 243 -86q-43 205 -172 331l-282 -153l-62 110l240 132q-63 39 -193 86l80 129q156 -39 279 -125l241 127l64 -113l-203 -109q205 -217 205 -598q0 -358 -160 -582t-475 -224q-182 0 -285.5 106.5t-103.5 292.5zM256 399 q0 -119 56.5 -187.5t168.5 -68.5q180 0 270.5 145.5t90.5 356.5q0 246 -238 246q-168 0 -258 -139.5t-90 -352.5z" />
<glyph unicode="&#xf1;" horiz-adv-x="1310" d="M113 963l18 112l375 10l-92 -397q12 27 26.5 54.5t63.5 100t101 125t135 95.5t171 43q227 0 228 -252q0 -49 -11 -117l-94 -573l174 -31l-18 -113l-377 -20l115 707q8 61 8 90q0 135 -107 135q-190 0 -357 -359q-52 -110 -81 -204l-59 -369h-195l148 922zM401 1372 q4 8 12 20.5t35 46.5t55.5 59.5t69.5 46t80 20.5q72 0 169 -47.5t154 -47.5q78 1 146 86l59 -71q-4 -8 -11 -20.5t-32.5 -44t-52.5 -56.5t-66.5 -44.5t-78.5 -19.5q-72 0 -170.5 45.5t-155.5 45.5q-37 0 -76 -22.5t-59 -45.5l-21 -23z" />
<glyph unicode="&#xf2;" d="M82 369q0 -176 100.5 -282.5t268.5 -106.5q274 0 449 202.5t175 540.5q0 170 -101.5 276.5t-277.5 106.5q-270 0 -442 -205t-172 -532zM287 379q0 233 99 398t269 165q215 1 215 -235q0 -250 -103 -407t-275 -157q-96 0 -150.5 58.5t-54.5 177.5zM397 1491l88 154 l422 -302l-63 -108z" />
<glyph unicode="&#xf3;" d="M82 369q0 -176 100.5 -282.5t268.5 -106.5q274 0 449 202.5t175 540.5q0 170 -101.5 276.5t-277.5 106.5q-270 0 -442 -205t-172 -532zM287 379q0 233 99 398t269 165q215 1 215 -235q0 -250 -103 -407t-275 -157q-96 0 -150.5 58.5t-54.5 177.5zM510 1343l422 302 l88 -154l-447 -256z" />
<glyph unicode="&#xf4;" d="M82 369q0 328 172 532.5t442 204.5q176 0 277.5 -106.5t101.5 -276.5q0 -338 -175 -540.5t-449 -202.5q-168 0 -268.5 106.5t-100.5 282.5zM287 379q0 -119 54 -177.5t151 -58.5q172 0 275 157t103 407q0 235 -213 235h-2q-170 0 -269 -165t-99 -398zM362 1356l332 266 l121 10l249 -276l-94 -92l-235 200l-305 -200z" />
<glyph unicode="&#xf5;" horiz-adv-x="1161" d="M82 369q0 -176 100.5 -282.5t268.5 -106.5q274 0 449 202.5t175 540.5q0 170 -101.5 276.5t-277.5 106.5q-270 0 -442 -205t-172 -532zM287 379q0 233 99 398t269 165q215 1 215 -235q0 -250 -103 -407t-275 -157q-96 0 -150.5 58.5t-54.5 177.5zM330 1372q4 8 12 20.5 t34.5 46.5t55.5 59.5t70 46t80 20.5q72 0 169 -47.5t154 -47.5q78 1 146 86l59 -71q-4 -8 -11 -20.5t-33 -44t-52.5 -56.5t-66.5 -44.5t-79 -19.5q-72 0 -170 45.5t-155 45.5q-37 0 -76 -22.5t-59 -45.5l-21 -23z" />
<glyph unicode="&#xf6;" d="M82 369q0 328 172 532.5t442 204.5q176 0 277.5 -106.5t101.5 -276.5q0 -338 -175 -540.5t-449 -202.5q-168 0 -268.5 106.5t-100.5 282.5zM287 379q0 -119 54 -177.5t151 -58.5q172 0 275 157t103 407q0 235 -213 235h-2q-170 0 -269 -165t-99 -398zM391 1403 q0 63 37 108t94 45q94 0 94 -94q0 -61 -39 -106t-94 -45q-43 0 -67.5 24.5t-24.5 67.5zM803 1403q0 63 36.5 108t94.5 45q94 0 94 -94q0 -61 -39 -106t-94 -45q-43 0 -67.5 24.5t-24.5 67.5z" />
<glyph unicode="&#xf7;" horiz-adv-x="1273" d="M102 461l27 164h1042l-24 -164h-1045zM434 92q0 72 42 123t116 51q113 0 113 -112q0 -70 -42 -122t-118 -52q-111 -1 -111 112zM567 932q0 72 42 123t116 51q113 0 113 -113q0 -70 -42 -122t-118 -52q-111 0 -111 113z" />
<glyph unicode="&#xf8;" horiz-adv-x="1187" d="M4 -143l178 241q-90 102 -90 271q0 328 172 532.5t438 204.5q111 0 199 -41l160 215l110 -72l-163 -221q90 -102 90 -250q0 -346 -177.5 -551.5t-453.5 -205.5q-96 0 -178 38l-174 -233zM297 379q0 -66 14 -107l480 643q-51 27 -119 27q-172 0 -273.5 -165t-101.5 -398z M399 168q47 -25 109 -25q176 0 280.5 157t104.5 407q0 59 -16 104z" />
<glyph unicode="&#xf9;" horiz-adv-x="1294" d="M92 963l19 112l374 10l-112 -706q-8 -66 -8 -90q0 -135 106 -135q76 0 149.5 58t123 141t88 165t57.5 140l18 59l62 368h194l-147 -921l176 -31l-18 -113l-377 -20l84 397q-8 -20 -24.5 -54t-64 -102.5t-99.5 -123t-135 -96t-169 -41.5q-227 0 -227 249q0 47 10 119 l94 574zM410 1491l88 154l422 -302l-64 -108z" />
<glyph unicode="&#xfa;" horiz-adv-x="1294" d="M92 963l19 112l374 10l-112 -706q-8 -66 -8 -90q0 -135 106 -135q76 0 149.5 58t123 141t88 165t57.5 140l18 59l62 368h194l-147 -921l176 -31l-18 -113l-377 -20l84 397q-8 -20 -24.5 -54t-64 -102.5t-99.5 -123t-135 -96t-169 -41.5q-227 0 -227 249q0 47 10 119 l94 574zM534 1343l422 302l88 -154l-446 -256z" />
<glyph unicode="&#xfb;" horiz-adv-x="1294" d="M92 963l19 112l374 10l-112 -706q-8 -66 -8 -90q0 -135 106 -135q76 0 149.5 58t123 141t88 165t57.5 140l18 59l62 368h194l-147 -921l176 -31l-18 -113l-377 -20l84 397q-8 -20 -24.5 -54t-64 -102.5t-99.5 -123t-135 -96t-169 -41.5q-227 0 -227 249q0 47 10 119 l94 574zM348 1356l332 266l121 10l250 -276l-95 -92l-235 200l-305 -200z" />
<glyph unicode="&#xfc;" horiz-adv-x="1294" d="M92 963l19 112l374 10l-112 -706q-8 -66 -8 -90q0 -135 106 -135q76 0 149.5 58t123 141t88 165t57.5 140l18 59l62 368h194l-147 -921l176 -31l-18 -113l-377 -20l84 397q-8 -20 -24.5 -54t-64 -102.5t-99.5 -123t-135 -96t-169 -41.5q-227 0 -227 249q0 47 10 119 l94 574zM406 1403q0 63 36.5 108t94.5 45q94 0 94 -94q0 -61 -39 -106t-94 -45q-43 0 -67.5 24.5t-24.5 67.5zM817 1403q0 63 37 108t94 45q94 0 94 -94q0 -61 -38.5 -106t-94.5 -45q-43 0 -67.5 24.5t-24.5 67.5z" />
<glyph unicode="&#xfd;" d="M-10 -459l41 131q82 -10 153 -10q104 0 160.5 55.5t120.5 202.5l-266 1004l-158 39l18 112l330 10l172 -751l19 -139l303 731l-154 37l19 112l450 10l-20 -122l-115 -33l-365 -862q-139 -330 -231 -445t-246 -115zM508 1343l422 302l88 -154l-447 -256z" />
<glyph unicode="&#xfe;" horiz-adv-x="1259" d="M-96 -471l18 113l168 41l277 1730l-170 41l18 113l375 10l-80 -492l-82 -376q6 16 22.5 50t57.5 98.5t90 116.5t124 92t155 40q131 0 203.5 -106.5t72.5 -262.5q0 -338 -188.5 -547.5t-446.5 -209.5q-72 0 -178 28l-49 -325l205 -41l-19 -113h-573zM367 164 q80 -31 172 -31q152 0 280.5 151.5t128.5 422.5q0 94 -35.5 159.5t-107.5 65.5q-70 0 -136.5 -57.5t-111.5 -138.5t-80 -161.5t-51 -138.5l-16 -57z" />
<glyph unicode="&#xff;" d="M-10 -459l41 131q82 -10 153 -10q104 0 160.5 55.5t120.5 202.5l-266 1004l-158 39l18 112l330 10l172 -751l19 -139l303 731l-154 37l19 112l450 10l-20 -122l-115 -33l-365 -862q-139 -330 -231 -445t-246 -115zM293 1403q0 63 37 108t94 45q94 0 94 -94 q0 -61 -39 -106t-94 -45q-43 0 -67.5 24.5t-24.5 67.5zM705 1403q0 63 36.5 108t94.5 45q94 0 94 -94q0 -61 -39 -106t-94 -45q-43 0 -67.5 24.5t-24.5 67.5z" />
<glyph unicode="&#x152;" horiz-adv-x="1925" d="M123 500q0 426 226 690t566 264q59 0 150.5 -10t122.5 -10h682l-55 -349h-115l-21 185h-452l-72 -441h467l-25 -163h-467l-79 -502h465l75 209h135l-63 -373h-729q-35 0 -153.5 -10t-174.5 -10q-219 0 -351 143t-132 377zM338 500q0 -170 83 -258t230 -88l195 10 l176 1106q-59 10 -141 10q-240 0 -391.5 -228.5t-151.5 -551.5z" />
<glyph unicode="&#x153;" horiz-adv-x="1789" d="M82 369q0 328 170 532.5t434 204.5q252 0 342 -201q156 201 383 201q156 0 247 -72.5t91 -193.5q0 -180 -193.5 -281.5t-517.5 -101.5q-6 -49 -6 -92q0 -113 55.5 -167.5t169.5 -54.5q66 0 148 22.5t131 46.5l49 24l62 -105q-23 -16 -65 -42t-160.5 -67.5t-225.5 -41.5 q-242 0 -317 196q-168 -196 -428 -196q-168 0 -268.5 106.5t-100.5 282.5zM287 379q0 -119 54 -177.5t151 -58.5q172 0 275 157t103 407q0 236 -215 235q-170 0 -269 -165t-99 -398zM1057 600q225 0 361 56.5t136 162.5q0 133 -153 133q-111 0 -207 -99t-137 -253z" />
<glyph unicode="&#x178;" horiz-adv-x="1247" d="M82 1311l18 112l338 11l205 -750l344 588l-153 39l20 112l526 11l-20 -123l-170 -41l-506 -797l-49 -309l170 -41l-21 -123h-559l21 123l184 41l57 373l-213 733zM430 1659q0 63 37 108t94 45q94 0 94 -94q0 -61 -38.5 -106t-94.5 -45q-43 0 -67.5 24.5t-24.5 67.5z M842 1659q0 63 36.5 108t94.5 45q94 0 94 -94q0 -61 -39 -106t-94 -45q-43 0 -67.5 24.5t-24.5 67.5z" />
<glyph unicode="&#x2c6;" horiz-adv-x="702" d="M0 1356l332 266l121 10l249 -276l-94 -92l-235 200l-305 -200z" />
<glyph unicode="&#x2da;" horiz-adv-x="798" d="M164 1405q0 109 82 191.5t188 82.5q82 0 140.5 -50t58.5 -136q0 -109 -82 -191.5t-189 -82.5q-86 0 -142 51t-56 135zM285 1417q0 -96 94 -96q59 0 96 48t37 112q0 96 -92 96q-59 0 -97 -48t-38 -112z" />
<glyph unicode="&#x2dc;" horiz-adv-x="780" d="M0 1372q4 8 12 20.5t35 46.5t55.5 59.5t69.5 46t80 20.5q72 0 169 -47.5t154 -47.5q78 1 146 86l59 -71q-4 -8 -11 -20.5t-32.5 -44t-52.5 -56.5t-66.5 -44.5t-78.5 -19.5q-72 0 -170.5 45.5t-155.5 45.5q-37 0 -76 -22.5t-59 -45.5l-21 -23z" />
<glyph unicode="&#x2000;" horiz-adv-x="943" />
<glyph unicode="&#x2001;" horiz-adv-x="1886" />
<glyph unicode="&#x2002;" horiz-adv-x="943" />
<glyph unicode="&#x2003;" horiz-adv-x="1886" />
<glyph unicode="&#x2004;" horiz-adv-x="628" />
<glyph unicode="&#x2005;" horiz-adv-x="471" />
<glyph unicode="&#x2006;" horiz-adv-x="314" />
<glyph unicode="&#x2007;" horiz-adv-x="314" />
<glyph unicode="&#x2008;" horiz-adv-x="235" />
<glyph unicode="&#x2009;" horiz-adv-x="377" />
<glyph unicode="&#x200a;" horiz-adv-x="104" />
<glyph unicode="&#x2010;" horiz-adv-x="786" d="M104 471l29 174h520l-28 -174h-521z" />
<glyph unicode="&#x2011;" horiz-adv-x="786" d="M104 471l29 174h520l-28 -174h-521z" />
<glyph unicode="&#x2012;" horiz-adv-x="786" d="M104 471l29 174h520l-28 -174h-521z" />
<glyph unicode="&#x2013;" horiz-adv-x="1028" d="M0 584l25 164h1003l-27 -164h-1001z" />
<glyph unicode="&#x2014;" horiz-adv-x="1972" d="M0 584l27 164h1945l-26 -164h-1946z" />
<glyph unicode="&#x2018;" horiz-adv-x="419" d="M102 1128q0 86 76 204t151 192l74 73l78 -77q-143 -164 -143 -224q0 -18 14.5 -54.5t14.5 -63.5q0 -63 -43 -112.5t-111 -49.5q-111 0 -111 112z" />
<glyph unicode="&#x2019;" horiz-adv-x="614" d="M154 1094q143 164 143 223q0 18 -14.5 55t-14.5 64q0 63 43 112t111 49q111 0 110 -112q0 -86 -75.5 -204t-150.5 -191l-75 -74z" />
<glyph unicode="&#x201a;" horiz-adv-x="532" d="M0 -279q143 164 143 224q0 18 -14 54.5t-14 63.5q0 63 43 112.5t110 49.5q111 0 111 -112q0 -55 -31 -123t-75 -127.5t-89 -109.5t-75 -80l-31 -29z" />
<glyph unicode="&#x201c;" horiz-adv-x="811" d="M102 1128q0 86 76 204t151 192l74 73l78 -77q-143 -164 -143 -224q0 -18 14.5 -54.5t14.5 -63.5q0 -63 -43 -112.5t-111 -49.5q-111 0 -111 112zM494 1128q0 55 30.5 123t74.5 127.5t89 109.5t76 80l31 29l77 -77q-143 -164 -143 -224q0 -18 14.5 -54.5t14.5 -63.5 q0 -63 -43 -112.5t-111 -49.5q-111 0 -110 112z" />
<glyph unicode="&#x201d;" horiz-adv-x="1005" d="M154 1094q143 164 143 223q0 18 -14.5 55t-14.5 64q0 63 43 112t111 49q111 0 110 -112q0 -86 -75.5 -204t-150.5 -191l-75 -74zM545 1094q143 164 143 223q0 18 -14.5 55t-14.5 64q0 63 43 112t111 49q111 0 111 -112q0 -55 -31 -123t-75 -127t-89 -109.5t-76 -79.5 l-30 -30z" />
<glyph unicode="&#x201e;" horiz-adv-x="913" d="M0 -279q143 164 143 224q0 18 -14 54.5t-14 63.5q0 63 43 112.5t110 49.5q111 0 111 -112q0 -55 -31 -123t-75 -127.5t-89 -109.5t-75 -80l-31 -29zM391 -279q143 164 144 224q0 18 -14.5 54.5t-14.5 63.5q0 63 43 112.5t110 49.5q111 0 111 -112q0 -86 -76 -204 t-150 -192l-75 -73z" />
<glyph unicode="&#x2022;" horiz-adv-x="1034" d="M154 635q0 168 108.5 268.5t249.5 100.5t239.5 -90.5t98.5 -258.5q0 -174 -107.5 -271t-251 -97t-240.5 87t-97 261z" />
<glyph unicode="&#x2026;" horiz-adv-x="1474" d="M119 92q0 72 42 123t115 51q113 0 113 -112q0 -70 -42 -122t-118 -52q-110 -1 -110 112zM602 92q0 72 42 123t116 51q113 0 112 -112q0 -70 -42 -122t-117 -52q-111 -1 -111 112zM1083 92q0 72 42 123t116 51q113 0 113 -112q0 -70 -42 -122t-118 -52q-111 -1 -111 112z " />
<glyph unicode="&#x202f;" horiz-adv-x="377" />
<glyph unicode="&#x2039;" horiz-adv-x="686" d="M123 498l18 123l338 297l105 -93l-271 -274l172 -305l-114 -82z" />
<glyph unicode="&#x203a;" horiz-adv-x="665" d="M113 254l260 276l-162 306l115 82l237 -334l-18 -123l-328 -297z" />
<glyph unicode="&#x205f;" horiz-adv-x="471" />
<glyph unicode="&#x20ac;" horiz-adv-x="1329" d="M88 489l23 146h862l-23 -143h-499q14 -332 272 -332q181 0 380 139q14 10 13 10l64 -110q-8 -8 -25.5 -23.5t-71 -53.5t-109.5 -66.5t-138 -52t-160 -23.5q-217 0 -334 140t-117 369h-137zM133 778l23 144h135q84 248 258 390t399 142q90 0 185.5 -22.5t144.5 -43.5 l49 -22l-61 -324h-105l-24 205q-119 33 -230 33q-129 0 -230.5 -97.5t-160.5 -260.5h502l-23 -144h-862z" />
<glyph unicode="&#x2122;" horiz-adv-x="1949" d="M119 1178l43 256h692l-43 -256h-96v139h-150l-90 -543l127 -26l-16 -93h-416l16 93l136 26l90 543h-150l-47 -139h-96zM807 655l14 93l111 26l90 547l-102 14l14 92l280 7l129 -392l261 385l268 7l-14 -93l-107 -20l-90 -547l96 -26l-16 -93h-350l16 93l119 26l73 447 l-239 -344l-105 -13l-127 348l-71 -438l121 -26l-17 -93h-354z" />
<glyph unicode="&#xe000;" horiz-adv-x="1085" d="M0 1085h1085v-1085h-1085v1085z" />
<glyph unicode="&#xfb01;" horiz-adv-x="1341" d="M-225 -471l24 143h148q166 0 209 246l157 1004h-192l20 133l197 20l20 123q33 203 140.5 301t359.5 98l412 -41l-62 -290h-137v159q-127 8 -233 9q-133 0 -196.5 -49.5t-80.5 -145.5l-26 -164h483l-25 -153h-483l-154 -963q-72 -451 -430 -451q-37 0 -74.5 5.5 t-57.5 10.5zM846 0l172 1075l196 10l-147 -921l172 -51l-16 -113h-377z" />
<glyph unicode="&#xfb02;" horiz-adv-x="1366" d="M-225 -471l24 143h148q170 0 209 246l157 1004h-192l20 133l195 20l20 123q33 205 134.5 302t353.5 97l461 -41l-224 -1390l176 -53l-20 -113h-383l225 1423q-178 10 -256 11q-131 0 -188 -48.5t-74 -146.5l-26 -164h290l-28 -153h-287l-154 -963q-72 -451 -430 -451 q-37 0 -74.5 5.5t-57.5 10.5z" />
<glyph unicode="&#xfb03;" horiz-adv-x="2109" d="M1561 963l20 112l375 10l-148 -921l175 -31l-19 -113l-377 -20l148 922zM1761 1382q0 78 38 131.5t106 53.5q51 0 81.5 -28t30.5 -75q0 -78 -37.5 -131t-105.5 -53q-51 0 -82 27.5t-31 74.5zM491 -465l34 131h146q168 0 209 252l157 1004h-192l20 133l197 20l20 123 q63 399 408 399q63 0 135 -10t112 -20l40 -11l-54 -286h-133v164h-100q-100 0 -144 -50.5t-61 -144.5l-26 -164h288l-26 -153h-287l-154 -963q-72 -451 -419 -451zM-233 -465l34 131h146q168 0 209 252l157 1004h-192l20 133l197 20l20 123q63 399 408 399q63 0 135 -10 t112 -20l40 -11l-54 -286h-133v164h-100q-100 0 -144 -50.5t-61 -144.5l-26 -164h288l-26 -153h-287l-154 -963q-72 -451 -419 -451z" />
<glyph unicode="&#xfb04;" horiz-adv-x="2103" d="M1561 0l225 1413l-172 41l18 113l379 10l-225 -1413l176 -31l-18 -113zM491 -465l34 131h146q168 0 209 252l157 1004h-192l20 133l197 20l20 123q63 399 408 399q63 0 135 -10t112 -20l40 -11l-54 -286h-133v164h-100q-100 0 -144 -50.5t-61 -144.5l-26 -164h288 l-26 -153h-287l-154 -963q-72 -451 -419 -451zM-233 -465l34 131h146q168 0 209 252l157 1004h-192l20 133l197 20l20 123q63 399 408 399q63 0 135 -10t112 -20l40 -11l-54 -286h-133v164h-100q-100 0 -144 -50.5t-61 -144.5l-26 -164h288l-26 -153h-287l-154 -963 q-72 -451 -419 -451z" />
</font>
</defs>
</svg>
